<?xml version="1.0" encoding="utf-8"?>
<!-- Generator: Adobe Illustrator 26.4.1, SVG Export Plug-In . SVG Version: 6.00 Build 0)  -->
<svg version="1.1" id="Capa_1" xmlns="http://www.w3.org/2000/svg" xmlns:xlink="http://www.w3.org/1999/xlink" x="0px" y="0px"
	 viewBox="0 0 189 64.5" style="enable-background:new 0 0 189 64.5;" xml:space="preserve">
<style type="text/css">
	.st0{enable-background:new    ;}
	.st1{fill:#512583;}
	.st2{fill:#F9C640;}
</style>
<g id="Content_Block-2" transform="translate(621.424 992.537)">
	<g class="st0">
		<path class="st1" d="M-617.9-933.4c-2.8-2.9-4.1-7-3.8-12.4c0.2-4.6,1.6-9.8,4.1-15.5c3-7.1,7.6-14.7,12.6-20.6
			c3-3.6,8.6-9.5,13-9.5c2.3,0,4.1,0.8,5.3,2.6c2,2.9,2.2,8.2,0.6,15.8c-1.2,5.5-2.9,10.2-3,10.4c-0.2,0.5-0.8,0.8-1.3,0.6
			c-0.5-0.2-0.8-0.8-0.6-1.3c0,0,1.7-4.7,2.9-10.1c0.7-3.1,1-5.9,1-8.1c0-2.7-0.4-4.8-1.3-6.1c-0.8-1.1-1.9-1.6-3.5-1.6
			c-0.8,0-2.4,0.4-4.9,2.3c-2,1.5-4.3,3.8-6.5,6.5c-4.8,5.8-9.3,13-12.3,20c-2.3,5.5-3.6,10.6-3.9,14.8c-0.2,4.7,0.8,8.3,3.2,10.8
			c0.7,0.7,1.7,1.1,2.9,1c2.2-0.1,5.2-1.6,8.8-4.5c3-2.3,6.5-5.5,10.2-9.5c6.5-6.8,11.7-13.7,11.8-13.7c0.3-0.5,1-0.6,1.5-0.2
			c0.5,0.3,0.5,1,0.2,1.5c0,0-5.3,7-11.9,13.9c-3.9,4.1-7.4,7.4-10.5,9.8c-4,3.1-7.3,4.7-10,4.9c-0.1,0-0.3,0-0.4,0
			C-615.4-931.7-616.8-932.3-617.9-933.4z"/>
		<path class="st1" d="M-584.4-953.6c-0.5-1.3-0.5-3.1,0-4.8c0.5-1.8,1.5-3.5,2.7-4.6c0.4-0.4,1.1-0.3,1.5,0.1
			c0.4,0.4,0.3,1.1-0.1,1.5c-1.7,1.6-3,5-2.1,7c0.3,0.7,0.8,1,1.6,0.9c0.8,0,1.6-0.7,2.3-2c0.7-1.3,1.1-3,1-4.4
			c0-0.8-0.1-1.4-0.4-1.8c-0.2-0.2-0.4-0.4-0.7-0.4h-0.1c-0.6,0-1-0.4-1-1s0.4-1.1,1-1.1h0.3c1.4,0.1,2.5,1,3.6,1.8
			c2,1.5,3.8,2.9,6.9,0.7c0.5-0.3,1.2-0.2,1.5,0.2c0.3,0.5,0.2,1.2-0.3,1.5c-2,1.4-3.8,1.8-5.7,1.4c-1.2-0.3-2.2-0.9-3.1-1.6v0.2
			c0.1,3.5-1.9,8.5-5.4,8.6h-0.2C-582.6-951.3-583.8-952.1-584.4-953.6z"/>
		<path class="st1" d="M-561.3-950.1c-0.9-0.9-0.7-3-0.4-6.5c0.1-0.8,0.1-1.8,0.2-2.6l-0.6,0.6c-0.7,0.9-1.5,1.9-2.3,3
			c-0.7,0.9-1.3,1.7-1.9,2.3c-0.6,0.8-1.1,1.3-1.8,1.3c-0.1,0-0.2,0-0.2,0c-0.4-0.1-0.8-0.4-0.9-0.8c0-0.1,0-0.1,0-0.2
			c0-1.8,0.3-4.3,1.1-7.4c0.5-2.2,1.1-4,1.1-4c0.2-0.6,0.8-0.9,1.4-0.7c0.5,0.2,0.8,0.8,0.6,1.4c0,0-1.4,4.2-1.9,7.9
			c0.3-0.3,0.5-0.7,0.8-1c3.2-4.1,4.3-5.3,5.3-5.3c0.4,0,0.7,0.1,1,0.4c0.6,0.7,0.6,2,0.3,5.4c-0.1,1.1-0.2,2.2-0.2,3.2
			c0,0.6,0,1,0,1.3c0.6-0.2,1.6-0.8,3.1-2.2c1.4-1.2,3.6-3.6,5.9-7.4c0.3-0.5,1-0.6,1.5-0.3c0.5,0.3,0.6,1,0.3,1.5
			c-2.5,4-4.8,6.5-6.3,7.8c-2.5,2.3-4.1,2.8-5,2.8C-560.6-949.6-561-949.8-561.3-950.1z"/>
		<path class="st1" d="M-530.8-977c-4.3,1.4-7.9,2.4-10.9,3.1c-0.9,2.6-2,5.2-3.2,7.4c-1,2.1-2.1,3.9-3.2,5.4
			c-0.4,3.9-0.4,9.8,0.2,16.9c0.2,0.1,0.8,0.3,0.8,1.1c0,0.5-0.4,0.8-0.8,0.9c-0.1,0-0.4,0.1-0.6,0.1h0h0c-0.1,0-0.2,0-0.3,0
			c0,0-0.1,0-0.2,0c-0.2-0.1-0.5-0.3-0.6-0.7c-0.1-0.2-0.1-0.5-0.2-0.8v-0.2c-0.3-3.6-0.7-9.8-0.4-14.9c-0.2,0-0.4-0.1-0.6-0.2
			c-0.4-0.4-0.5-1.1-0.1-1.5c0.3-0.4,0.7-0.8,1-1.3c0-0.1,0-0.2,0-0.3c0.5-3.8,1.1-7.3,1.7-10.4c-2.3,0.3-3.9,0.3-4.9,0.3
			c-0.3,0-0.6,0-0.9,0h-0.2c-0.5,0-1-0.1-1.3-0.4c-0.2-0.2-0.4-0.6-0.4-0.9c0-0.6,0.5-1.1,1.1-1.1c0.2,0,0.5,0.1,0.7,0.3h1
			c1.1,0,2.8,0,5.4-0.4c0.5-2.4,1.1-4.5,1.7-6.3c0.7-2.3,1.5-4.1,2.4-5.4c0.9-1.5,2-2.3,3.2-2.3c0.6,0,1.2,0.3,1.5,1
			c0.1,0.3,0.6,1.4,0,5.1c-0.3,1.9-0.9,4.1-1.7,6.5c2.6-0.6,5.8-1.5,9.4-2.7c0.6-0.2,1.2,0.1,1.4,0.7
			C-529.9-977.8-530.3-977.2-530.8-977z M-544.2-973.4c-0.6,0.1-1.3,0.2-1.9,0.3c-0.4,2-0.8,4.1-1.1,6.5c0.1-0.3,0.3-0.6,0.5-0.9
			C-545.8-969.4-545-971.4-544.2-973.4z M-545.6-975.4c0.7-0.1,1.4-0.2,2.2-0.4c0,0,0,0,0-0.1c0.9-2.7,1.6-5.3,2-7.4
			c0.3-1.8,0.3-2.8,0.3-3.2c-0.2,0.1-0.6,0.5-1,1.1c-0.7,1-1.4,2.7-2.1,4.8C-544.6-979-545.1-977.3-545.6-975.4z"/>
		<path class="st1" d="M-535.3-951.4c-0.5-0.7-0.6-1.7-0.4-3.5c0-0.4,0.1-0.9,0.1-1.5c-1.7,2.2-3.7,3.5-5.4,3.6
			c-1.4,0-2.4-0.7-2.6-2c-0.2-1.4,0.4-3.6,1.8-5.5c0.9-1.2,2.8-3.4,5.6-4.3c0.6-0.1,1.2,0.1,1.3,0.7c0.1,0.5-0.1,1.1-0.7,1.3
			c-1.6,0.4-3.2,1.7-4.5,3.4c-1.1,1.6-1.5,3.1-1.4,3.8c0,0.2,0,0.3,0.3,0.3c1.1-0.1,2.6-1.1,4-2.8c1.5-1.9,2.8-4.5,3.7-7.2
			c0.2-0.6,0.8-0.9,1.3-0.7c0.6,0.2,0.9,0.8,0.7,1.3c0,0-0.8,2.7-1.4,5.5c-0.9,4.1-0.8,5.6-0.7,6.1c1.1-0.2,2.8-1.4,4.8-3.4
			c2.2-2.1,4.1-4.6,4.6-5.3c0.3-0.5,1-0.6,1.5-0.2c0.4,0.3,0.5,1,0.2,1.5c-0.5,0.7-2.5,3.3-4.8,5.5c-2.7,2.7-4.9,4-6.6,4
			C-534.4-950.7-534.9-951-535.3-951.4z"/>
		<path class="st1" d="M-525.9-954.8c-0.3-1.4,0-3.2,0.8-5c0.8-1.8,2-3.1,3.2-3.8c0.6-0.3,1.2-0.4,1.8-0.4c0.7,0.1,1.3,0.4,1.8,1
			c0.4,0.4,0.3,1.1-0.1,1.5c-0.4,0.4-1.1,0.3-1.5-0.1c-0.3-0.3-0.5-0.4-1-0.1c-0.8,0.4-1.6,1.5-2.3,2.8c-0.6,1.3-0.8,2.7-0.6,3.6
			c0.1,0.5,0.4,1,1.5,1c2.1,0,4.3-0.9,6.5-2.6c2.3-1.8,3.8-3.8,4.3-4.6c0.3-0.5,1-0.6,1.5-0.3c0.5,0.3,0.6,1,0.2,1.5
			c-0.6,0.9-2.2,3.1-4.8,5.1c-2.6,2-5.2,3-7.8,3C-524.2-952.2-525.5-953.1-525.9-954.8z"/>
		<path class="st1" d="M-492.1-977c-4.3,1.4-7.9,2.4-10.9,3.1c-0.9,2.6-2,5.2-3.2,7.4c-1,2.1-2.1,3.9-3.2,5.4
			c-0.4,3.9-0.4,9.8,0.2,16.9c0.2,0.1,0.8,0.3,0.8,1.1c0,0.5-0.4,0.8-0.8,0.9c-0.1,0-0.4,0.1-0.6,0.1h0h0c-0.1,0-0.2,0-0.3,0
			c0,0-0.1,0-0.2,0c-0.2-0.1-0.5-0.3-0.6-0.7c-0.1-0.2-0.1-0.5-0.2-0.8v-0.2c-0.3-3.6-0.7-9.8-0.4-14.9c-0.2,0-0.4-0.1-0.6-0.2
			c-0.4-0.4-0.5-1.1-0.1-1.5c0.3-0.4,0.7-0.8,1-1.3c0-0.1,0-0.2,0-0.3c0.5-3.8,1.1-7.3,1.7-10.4c-2.3,0.3-3.9,0.3-4.9,0.3
			c-0.3,0-0.6,0-0.9,0h-0.2c-0.5,0-1-0.1-1.3-0.4c-0.2-0.2-0.4-0.6-0.4-0.9c0-0.6,0.5-1.1,1.1-1.1c0.2,0,0.5,0.1,0.7,0.3h1
			c1.1,0,2.8,0,5.4-0.4c0.5-2.4,1.1-4.5,1.7-6.3c0.7-2.3,1.5-4.1,2.4-5.4c0.9-1.5,2-2.3,3.2-2.3c0.6,0,1.2,0.3,1.5,1
			c0.1,0.3,0.6,1.4,0,5.1c-0.3,1.9-0.9,4.1-1.7,6.5c2.6-0.6,5.8-1.5,9.4-2.7c0.6-0.2,1.2,0.1,1.4,0.7
			C-491.2-977.8-491.5-977.2-492.1-977z M-505.5-973.4c-0.6,0.1-1.3,0.2-1.9,0.3c-0.4,2-0.8,4.1-1.1,6.5c0.1-0.3,0.3-0.6,0.5-0.9
			C-507.1-969.4-506.2-971.4-505.5-973.4z M-506.8-975.4c0.7-0.1,1.4-0.2,2.2-0.4c0,0,0,0,0-0.1c0.9-2.7,1.6-5.3,2-7.4
			c0.3-1.8,0.3-2.8,0.3-3.2c-0.2,0.1-0.6,0.5-1,1.1c-0.7,1-1.4,2.7-2.1,4.8C-505.9-979-506.3-977.3-506.8-975.4z"/>
		<path class="st1" d="M-466.9-928.3c-0.2-0.2-0.6-0.8-0.3-1.8v0c1-3.7,4.6-21.9,7-41.2c-1.4,4.5-3.1,9.2-4.9,13.5
			c-2.7,6.6-5.6,12.1-8.3,15.9c-1.6,2.2-3.1,4-4.6,5.2c-1.7,1.4-3.4,2.1-5,2.1c-1.1,0-2.1-0.5-2.8-1.4c-0.9-1.2-1.3-3.2-1.3-6.1
			c0-2.3,0.4-5.3,1.1-9c1.3-6.7,3.4-14.8,5.4-22c1.4-5.2,2.7-10.1,3.4-13.6c0.1-0.6,0.7-1,1.3-0.9c0.6,0.1,0.9,0.7,0.8,1.3
			c-0.7,3.6-2.1,8.5-3.5,13.7c-1.9,7.1-4,15.1-5.3,21.8c-0.6,3.6-1,6.5-1,8.7c0,2.9,0.4,4.2,0.8,4.7c0.2,0.3,0.5,0.5,1,0.5
			c2.2,0,4.9-2.2,7.7-6.3c2.6-3.7,5.4-9.1,8.1-15.5c2.3-5.6,4.6-11.9,6.2-17.7c1.3-4.8,2.2-9,2.5-11.8c0-0.4,0-0.8,0.1-1.1
			c0-0.6,0.5-1.1,1.1-1c0.6,0,1.1,0.5,1,1.1c0,0.4,0,0.8-0.1,1.2c-1.8,24.5-7.5,53.5-8.8,58.4c0,0,0,0,0,0c0.1,0.4,0.1,0.8-0.2,1.2
			c-0.2,0.2-0.5,0.3-0.8,0.3C-466.4-928-466.7-928.1-466.9-928.3z"/>
		<path class="st1" d="M-457.5-948.2c-0.1-0.8,0.1-1.8,0.8-3c0.5-0.9,1.3-1.9,2.3-3c0-0.6,0-1.3,0-2.1c-0.1-3.5-0.6-7.1-0.9-8.9
			c-0.1-0.8-0.1-1.8,0.6-2.6c0.8-0.8,2-0.7,2.2-0.6c0.5,0,1,0.6,0.9,1.2c-0.1,0.6-0.6,1-1.2,0.9h0c-0.1,0-0.2,0-0.3,0
			c0,0-0.1,0.3,0,0.7c0.3,1.9,0.8,5.6,0.9,9.2l0,0c1.9-1.9,4.3-3.8,6.7-5.6c0.4-0.3,1.1-0.2,1.5,0.2c0.3,0.4,0.2,1.1-0.2,1.5
			c-2.9,2.1-5.8,4.6-7.9,6.8c-0.1,4.1-0.8,5.4-1.5,6c-0.4,0.4-1,0.6-1.6,0.6h-0.4C-456.7-946.8-457.3-947.4-457.5-948.2z
			 M-455.3-948.8C-455.3-948.8-455.3-948.8-455.3-948.8c0.2-0.1,0.5-0.5,0.7-1.6C-455.2-949.6-455.4-949-455.3-948.8L-455.3-948.8z"
			/>
		<path class="st1" d="M-441.8-951.4c-0.6-0.1-0.9-0.7-0.8-1.3c0.1-0.5,0.3-0.8,0.5-1c0.4-0.4,1.1-0.4,1.5,0c0.3,0.4,0.3,0.9,0,1.3
			c0,0,0,0.1,0,0.2c-0.1,0.5-0.5,0.8-1,0.8C-441.6-951.3-441.7-951.3-441.8-951.4z M-440.9-958c-0.5-0.2-0.7-0.9-0.5-1.4
			c0-0.1,0.1-0.3,0.2-0.4c0.5-7.5,1.5-14.9,2.9-20.7c0.6-2.6,1.2-4.7,1.9-6.2c0.3-0.8,0.6-1.4,1-1.8c0.5-0.7,1-1,1.6-1
			c0.4,0,0.8,0.2,1,0.6c0.2,0.4,0.3,0.9,0.3,1.9c0,0.7,0,1.6-0.2,2.8c-0.2,2.2-0.7,5.1-1.3,8c-0.6,3.3-2.5,11.3-5.2,17
			c0,0.3-0.1,0.5-0.3,0.7c0,0-0.1,0.1-0.1,0.2c-0.2,0.3-0.6,0.6-1,0.6C-440.6-957.9-440.8-957.9-440.9-958z M-436.1-976.4
			c0.8-4,1.2-7.1,1.4-9.1c-0.5,1.3-1.1,3.3-1.8,6.3c-0.8,3.5-1.4,7.5-1.9,11.7C-437.5-970.2-436.8-973.2-436.1-976.4z"/>
	</g>
</g>
</svg>
