<?xml version="1.0" encoding="utf-8"?>
<!-- Generator: Adobe Illustrator 26.4.1, SVG Export Plug-In . SVG Version: 6.00 Build 0)  -->
<svg version="1.1" id="Capa_1" xmlns="http://www.w3.org/2000/svg" xmlns:xlink="http://www.w3.org/1999/xlink" x="0px" y="0px"
	 viewBox="0 0 85 658" style="enable-background:new 0 0 85 658;" xml:space="preserve">
<style type="text/css">
	.st0{enable-background:new    ;}
	.st1{fill:#512583;}
	.st2{fill:#F9C640;}
</style>
<circle id="Elipse_255" class="st2" cx="42.8" cy="467" r="5.5"/>
<circle id="Elipse_259" class="st2" cx="42.8" cy="504" r="5.5"/>
<circle id="Elipse_262" class="st2" cx="42.8" cy="541" r="5.5"/>
<circle id="Elipse_265" class="st2" cx="42.8" cy="578" r="5.5"/>
<circle id="Elipse_268" class="st2" cx="42.8" cy="615" r="5.5"/>
<circle id="Elipse_271" class="st2" cx="42.8" cy="652" r="5.5"/>
<circle id="Elipse_256" class="st2" cx="79.8" cy="467" r="5.5"/>
<circle id="Elipse_260" class="st2" cx="79.8" cy="504" r="5.5"/>
<circle id="Elipse_263" class="st2" cx="79.8" cy="541" r="5.5"/>
<circle id="Elipse_266" class="st2" cx="79.8" cy="578" r="5.5"/>
<circle id="Elipse_269" class="st2" cx="79.8" cy="615" r="5.5"/>
<circle id="Elipse_272" class="st2" cx="79.8" cy="652" r="5.5"/>
<circle id="Elipse_257" class="st2" cx="5.8" cy="467" r="5.5"/>
<circle id="Elipse_258" class="st2" cx="5.8" cy="504" r="5.5"/>
<circle id="Elipse_261" class="st2" cx="5.8" cy="541" r="5.5"/>
<circle id="Elipse_264" class="st2" cx="5.8" cy="578" r="5.5"/>
<circle id="Elipse_267" class="st2" cx="5.8" cy="615" r="5.5"/>
<circle id="Elipse_270" class="st2" cx="5.8" cy="652" r="5.5"/>
<g class="st0">
	<path class="st2" d="M40.2,438.2c-13.8,0-23.8-10.6-23.8-24.7c0-7.5,2.7-14,7.7-18.3l5.2,5.5c-3.6,3.4-5.4,7.5-5.4,12.3
		c0,9.6,6.7,16.5,16.2,16.5c9.5,0,16.2-6.9,16.2-16.5c0-4.8-1.8-9-5.5-12.3l5.3-5.5c5,4.3,7.7,10.8,7.7,18.3
		C64,427.7,54,438.2,40.2,438.2z"/>
	<path class="st2" d="M40.2,391.3c-13.7,0-23.8-10.6-23.8-24.9s10-24.9,23.8-24.9c13.7,0,23.8,10.6,23.8,24.9S53.9,391.3,40.2,391.3
		z M40.2,350.1c-9.4,0-16.2,6.9-16.2,16.2s6.8,16.2,16.2,16.2c9.4,0,16.2-6.9,16.2-16.2S49.7,350.1,40.2,350.1z"/>
	<path class="st2" d="M17.1,291.3h46.2v7.1L32,323.9h31.3v8.5H17.1v-7.1l31.3-25.5H17.1V291.3z"/>
	<path class="st2" d="M24.4,269.6v15.3h-7.3v-39.2h7.3V261h38.9v8.6H24.4z"/>
	<path class="st2" d="M52.6,211.5v23.1l10.7,4.6v8.8l-46.2-20.8v-8.4l46.2-20.9v9L52.6,211.5z M45.9,214.4l-20.2,8.7l20.2,8.6V214.4
		z"/>
	<path class="st2" d="M40.2,196c-13.8,0-23.8-10.6-23.8-24.7c0-7.5,2.7-14,7.7-18.3l5.2,5.5c-3.6,3.4-5.4,7.5-5.4,12.3
		c0,9.6,6.7,16.5,16.2,16.5c9.5,0,16.2-6.9,16.2-16.5c0-4.8-1.8-9-5.5-12.3l5.3-5.5c5,4.3,7.7,10.8,7.7,18.3
		C64,185.5,54,196,40.2,196z"/>
	<path class="st2" d="M24.4,135.9v15.3h-7.3V112h7.3v15.3h38.9v8.6H24.4z"/>
	<path class="st2" d="M43.2,87.7H17.1v-8.6h25.7c9.5,0,13.6-4.3,13.6-11.7s-4.1-11.7-13.6-11.7H17.1v-8.4h26.1
		c13.5,0,20.8,7.6,20.8,20.2C64,80.1,56.7,87.7,43.2,87.7z"/>
	<path class="st2" d="M58.4,39.1l-6.7-3c3-3.7,5.1-9.6,5.1-15.2c0-7.2-2.6-10.2-6-10.2c-10,0-3.4,27.5-20.6,27.5
		c-7.5,0-13.8-5.9-13.8-18.6c0-5.5,1.5-11.4,4.1-15.4l6.7,2.7c-2.4,4.2-3.6,8.7-3.6,12.7c0,7.1,2.8,10,6.3,10
		c9.8,0,3.4-27.4,20.4-27.4c7.4,0,13.7,6,13.7,18.7C64,28.1,61.7,35.3,58.4,39.1z"/>
</g>
</svg>
