<?xml version="1.0" encoding="utf-8"?>
<!-- Generator: Adobe Illustrator 26.4.1, SVG Export Plug-In . SVG Version: 6.00 Build 0)  -->
<svg version="1.1" id="Capa_1" xmlns="http://www.w3.org/2000/svg" xmlns:xlink="http://www.w3.org/1999/xlink" x="0px" y="0px"
	 viewBox="0 0 174 71" style="enable-background:new 0 0 174 71;" xml:space="preserve">
<style type="text/css">
	.st0{enable-background:new    ;}
	.st1{fill:#512583;}
	.st2{fill:#F9C640;}
</style>
<g id="Content_Block" transform="translate(247.054 982.048)">
	<g class="st0">
		<path class="st1" d="M-205.7-976.7c-7,2-16.9,4.6-25.6,6.2c-1.4,4.5-3.2,10.8-5,17.6c-0.9,3.4-1.7,6.5-2.3,9.5
			c2.4-0.4,5.6-1,9.8-2.2c0.6-0.2,1.2,0.2,1.4,0.8s-0.2,1.2-0.8,1.4c-4.4,1.1-8,2-10.9,2.4c-2.4,11.3-3.3,19.6-2.5,24.4
			c0.1,0.6-0.4,1.2-0.9,1.3c-0.1,0-0.2,0.1-0.2,0.1c-0.5,0-1-0.4-1.1-1c-0.6-3.7-0.3-9.3,0.9-16.7c0.4-2.4,0.9-5,1.5-7.8
			c-0.7,0.1-1.2,0.1-1.8,0.1h-0.1c-1.9,0-3.1-0.4-3.5-1.1c-0.3-0.6-0.1-1.2,0.5-1.5c0.5-0.3,1-0.2,1.4,0.2c0.2,0.1,1.1,0.4,4.1,0.1
			c0.7-3.3,1.6-6.8,2.5-10.4c1.6-6.3,3.3-12.1,4.7-16.6c-4.5,0.7-6.4,0.7-6.6,0.7c-0.6-0.1-1.1-0.5-1.1-1.1s0.5-1.1,1.1-1.1
			c0.1,0,2.2,0,7.4-0.8c1.1-3.7,1.9-6,1.9-6c0.2-0.6,0.8-0.9,1.4-0.7c0.6,0.2,0.9,0.8,0.7,1.4c0,0.1-0.6,1.9-1.6,4.9
			c8.3-1.6,17.6-4,24.2-5.9c0.6-0.2,1.2,0.2,1.4,0.8C-204.8-977.5-205.2-976.9-205.7-976.7z"/>
		<path class="st1" d="M-225-938.2c-0.6-1.3-0.6-3.2-0.1-5c0.5-1.9,1.6-3.6,2.9-4.8c0.5-0.4,1.2-0.4,1.6,0.1
			c0.4,0.5,0.4,1.1-0.1,1.6c-1.8,1.7-3.1,5.2-2.2,7.3c0.3,0.7,0.8,1,1.7,1c0.8,0,1.7-0.8,2.4-2.1c0.7-1.4,1.1-3.1,1.1-4.6
			c0-0.8-0.2-1.5-0.4-1.9c-0.2-0.3-0.4-0.4-0.8-0.5h-0.1c-0.6,0-1.1-0.5-1.1-1.1s0.5-1.1,1.1-1.1h0.3c1.5,0.1,2.6,1,3.8,1.9
			c2.1,1.6,3.9,3,7.3,0.7c0.5-0.4,1.2-0.3,1.6,0.3c0.3,0.5,0.2,1.2-0.3,1.6c-2.1,1.5-4,1.9-5.9,1.5c-1.2-0.3-2.3-1-3.2-1.7v0.3
			c0.1,3.6-2,8.9-5.6,9h-0.3C-223.1-935.8-224.4-936.7-225-938.2z"/>
		<path class="st1" d="M-195.5-926.3c-1.5-5.5-1.8-10.9-1.7-15.8c-0.5,0.7-1,1.4-1.5,2c-3.3,4.4-5,4.9-6,5c-0.4,0-0.9-0.1-1.4-0.6
			c-0.5-0.5-1.2-1.7-1.5-5.8c-0.1-0.6-0.1-1.2-0.1-1.8c-0.2,0-0.5-0.1-0.6-0.2c-0.6-0.4-0.7-1-0.4-1.6c0.3-0.5,0.6-1.1,1-1.6
			c0.3-6.3,1.5-12.3,3.3-16.9c1.8-4.5,3.9-7.3,6.1-7.8c0.8-0.2,1.5,0.1,1.9,0.6c0.6,0.8,0.6,2.1,0,4.4c-0.5,1.8-1.3,4.1-2.3,6.7
			c-1.9,4.5-4.4,9.5-6.8,13.7c0,0.8,0,2.5,0.1,4.4c0.2,2.9,0.6,3.8,0.8,4.2c0.5-0.2,1.7-0.9,4.1-4.1c1.1-1.3,2.2-3.1,3.4-5
			c0.3-6.5,1.7-13.8,3.7-19.8c0.9-2.9,2-5.2,3-6.9c1.3-2.1,2.5-3.1,3.9-3.1c0.9,0,1.7,0.4,2.2,1.2c0.4,0.6,0.6,1.4,0.6,2.4
			c0,4.9-4.4,14.9-8.2,21.9c-0.9,1.8-1.9,3.4-2.9,5c-0.3,5.7-0.3,12.4,1.5,19c0.5,0.1,0.9,0.5,1,1c0.1,0.6-0.4,1.2-1,1.3h-0.2
			C-194.1-924.6-195.2-924.9-195.5-926.3z M-200.9-960.1c2.1-5.1,2.7-7.8,2.8-8.9c-1.1,0.7-2.6,2.5-4.1,6.2
			c-1.3,3.2-2.2,7.1-2.8,11.2C-203.5-954.3-202.1-957.3-200.9-960.1z M-194-951.9c2.2-4.1,4.2-8.3,5.6-11.9c1.5-3.9,2.3-7.1,2.3-8.9
			c0-0.8-0.2-1.1-0.2-1.2c-0.1-0.1-0.1-0.1-0.3-0.1c-0.1,0-0.7,0-1.9,2c-0.9,1.5-1.9,3.7-2.8,6.4c-1.5,4.4-2.5,9.5-3.1,14.5
			C-194.2-951.3-194.1-951.6-194-951.9z"/>
		<path class="st1" d="M-188.6-938.2c-0.6-1.3-0.6-3.2-0.1-5c0.5-1.9,1.6-3.6,2.9-4.8c0.5-0.4,1.2-0.4,1.6,0.1
			c0.4,0.5,0.4,1.1-0.1,1.6c-1.8,1.7-3.1,5.2-2.2,7.3c0.3,0.7,0.8,1,1.7,1c0.8,0,1.7-0.8,2.4-2.1c0.7-1.4,1.1-3.1,1.1-4.6
			c0-0.8-0.2-1.5-0.4-1.9c-0.2-0.3-0.4-0.4-0.8-0.5h-0.1c-0.6,0-1.1-0.5-1.1-1.1s0.5-1.1,1.1-1.1h0.3c1.5,0.1,2.6,1,3.8,1.9
			c2.1,1.6,3.9,3,7.3,0.7c0.5-0.4,1.2-0.3,1.6,0.3c0.3,0.5,0.2,1.2-0.3,1.6c-2.1,1.5-4,1.9-5.9,1.5c-1.2-0.3-2.3-1-3.2-1.7v0.3
			c0.1,3.6-2,8.9-5.6,9h-0.3C-186.7-935.8-188-936.7-188.6-938.2z"/>
		<path class="st1" d="M-168.2-933.8c-0.6-0.1-1.1-0.5-1.5-1.2c-0.8-1.3-1.4-3.4-1.6-5.8c-0.2-2-0.2-5.2,0.7-9v-0.1
			c0-0.1,0-0.1,0-0.1c-0.3-0.6-0.1-1.2,0.5-1.5c0.4-0.2,0.9-0.1,1.3,0.2c0.7,0.6,0.5,1.6,0.4,2.1c-0.8,3.1-1,6.3-0.6,9.2
			c0.3,1.7,0.7,2.9,1,3.6c0.5-0.7,1.2-1.8,1.8-2.7c0.8-1.3,1.8-2.7,2.5-3.8c1.2-1.7,1.9-2.3,2.7-2.3c0.3,0,0.9,0.1,1.3,0.8
			c0.2,0.3,0.3,0.6,0.4,1c0.2,0.6,0.3,1.5,0.4,2.3c0.2,1,0.3,2.2,0.6,3.2c0.2,0.8,0.4,1.1,0.5,1.3c0.2-0.2,0.4-0.6,0.9-1.4
			c0.5-1,1.1-2.4,1.9-4l1.9-4c0.4-0.7,0.9-0.9,1.3-1c0.8-0.1,1.3,0.7,1.7,1.3c0.4,0.5,0.8,1.2,1.4,1.2c0.3,0.1,1.1-0.2,2.8-2
			c0.4-0.5,1.1-0.5,1.6-0.1c0.5,0.4,0.6,1.1,0.2,1.6c-1.7,2-3.3,2.9-4.7,2.8c-1.3-0.1-2.1-0.9-2.7-1.7c-0.5,1-0.9,2-1.3,2.9
			c-0.9,2-1.6,3.5-2.2,4.6c-0.7,1.1-1.4,2.2-2.5,2.2c-0.5,0-1.2-0.2-1.8-0.9c-0.3-0.4-0.6-1-0.8-1.7c-0.4-1.2-0.6-2.6-0.7-3.9
			c-0.1-0.5-0.2-1-0.3-1.5c-0.2,0.3-0.4,0.6-0.7,1c-0.7,1-1.5,2.2-2.3,3.4c-0.6,1-1.2,2-1.7,2.6c-0.6,0.8-1.1,1.6-1.9,1.6
			C-168-933.8-168.1-933.8-168.2-933.8z"/>
		<path class="st1" d="M-109.1-911.8c-0.3-0.3-0.6-0.8-0.4-1.9v-0.1c1-3.8,4.8-22.9,7.4-43.1c-1.5,4.7-3.3,9.6-5.1,14.2
			c-2.9,6.9-5.9,12.6-8.7,16.7c-1.7,2.3-3.3,4.2-4.8,5.4c-1.8,1.5-3.6,2.2-5.2,2.2c-1.2,0-2.2-0.5-2.9-1.5c-1-1.2-1.4-3.3-1.4-6.4
			c0.1-2.4,0.4-5.6,1.1-9.5c1.4-7.1,3.6-15.5,5.6-23c1.5-5.4,2.8-10.5,3.6-14.2c0.2-0.6,0.7-1,1.4-0.9c0.6,0.2,1,0.8,0.9,1.4
			c-0.8,3.7-2.2,8.9-3.6,14.4c-2,7.4-4.2,15.8-5.6,22.8c-0.7,3.8-1,6.8-1.1,9.1c-0.1,3.1,0.4,4.4,0.9,4.9c0.3,0.4,0.6,0.5,1,0.5
			c2.3,0,5.1-2.3,8.1-6.6c2.8-3.9,5.7-9.5,8.5-16.2c2.4-5.9,4.8-12.5,6.5-18.5c1.4-5,2.3-9.4,2.6-12.3c0-0.4,0.1-0.8,0.1-1.2
			c0-0.7,0.6-1.1,1.2-1.1c0.6,0,1.1,0.6,1.1,1.2c0,0.4-0.1,0.8-0.1,1.3c-1.9,25.6-7.8,56.1-9.2,61.1c0,0.1-0.1,0.1-0.1,0.1
			c0.2,0.4,0.1,0.9-0.2,1.2c-0.3,0.2-0.6,0.4-0.9,0.4C-108.6-911.5-108.9-911.6-109.1-911.8z"/>
		<path class="st1" d="M-99.3-932.6c-0.2-0.8,0.1-1.9,0.9-3.1c0.6-0.9,1.4-2,2.4-3.1c0-0.7,0-1.4-0.1-2.2c-0.2-3.6-0.7-7.4-1-9.4
			c-0.1-0.8-0.1-1.9,0.7-2.8c0.9-0.9,2.1-0.7,2.3-0.7c0.6,0.1,1,0.6,0.9,1.2c-0.1,0.6-0.6,1-1.2,1h-0.1c-0.1,0-0.3,0-0.3,0.1
			c-0.1,0.1-0.1,0.3-0.1,0.8c0.3,2,0.8,5.9,1,9.6l0.1,0.1c2-2,4.5-4,7-5.8c0.5-0.4,1.2-0.3,1.6,0.3c0.4,0.5,0.3,1.2-0.3,1.6
			c-3.1,2.2-6.1,4.8-8.3,7.1c-0.1,4.3-0.9,5.6-1.6,6.3c-0.5,0.5-1,0.7-1.7,0.7h-0.5C-98.5-931.1-99.1-931.7-99.3-932.6z
			 M-97.1-933.2c0.1,0,0.1,0,0.1-0.1c0.1-0.1,0.4-0.5,0.6-1.6C-96.9-934-97.1-933.4-97.1-933.2L-97.1-933.2z"/>
		<path class="st1" d="M-82.8-935.9c-0.6-0.1-1-0.7-0.8-1.3c0.2-0.5,0.3-0.9,0.6-1.1c0.5-0.4,1.1-0.4,1.6,0.1c0.4,0.4,0.4,1,0.1,1.4
			c0,0.1,0,0.1-0.1,0.2c-0.1,0.5-0.6,0.8-1.1,0.8C-82.7-935.9-82.7-935.9-82.8-935.9z M-81.9-942.9c-0.6-0.3-0.8-0.9-0.5-1.5
			c0.1-0.2,0.2-0.3,0.2-0.5c0.5-7.9,1.6-15.6,3-21.7c0.6-2.7,1.3-4.9,2-6.5c0.4-0.8,0.7-1.5,1-1.9c0.5-0.7,1.1-1,1.7-1
			c0.4,0,0.8,0.2,1.1,0.6c0.3,0.4,0.4,1,0.4,2c0,0.8-0.1,1.7-0.2,2.9c-0.3,2.3-0.7,5.3-1.4,8.4c-0.7,3.4-2.6,11.8-5.4,17.8
			c-0.1,0.4-0.2,0.6-0.3,0.7c-0.1,0.1-0.1,0.2-0.1,0.2c-0.2,0.4-0.6,0.6-1,0.6C-81.6-942.7-81.8-942.8-81.9-942.9z M-76.9-962.1
			c0.9-4.2,1.3-7.4,1.5-9.5c-0.5,1.4-1.2,3.5-1.9,6.6c-0.8,3.6-1.5,7.8-2,12.3C-78.4-955.6-77.6-958.8-76.9-962.1z"/>
	</g>
</g>
</svg>
