<?xml version="1.0" encoding="UTF-8"?><svg id="Capa_1" xmlns="http://www.w3.org/2000/svg" viewBox="0 0 81 81"><path id="Icon_awesome-instagram" d="M40.036,19.516c-11.526,0-20.869,9.344-20.868,20.87,0,11.526,9.344,20.869,20.87,20.868,11.525,0,20.868-9.344,20.868-20.869,.018-11.507-9.296-20.851-20.803-20.869-.022,0-.045,0-.067,0Zm0,34.437c-7.493,0-13.568-6.075-13.568-13.568s6.075-13.568,13.568-13.568,13.568,6.075,13.568,13.568h0c-.015,7.486-6.082,13.551-13.568,13.564v.004Zm26.589-35.291c0,2.689-2.179,4.868-4.868,4.868s-4.868-2.179-4.868-4.868,2.179-4.868,4.868-4.868c2.682-.007,4.861,2.162,4.868,4.844,0,.008,0,.016,0,.024Zm13.822,4.94c-.309-6.521-1.8-12.3-6.575-17.055C69.115,1.789,63.34,.3,56.819-.027,50.099-.408,29.956-.408,23.236-.027,16.736,.282,10.958,1.773,6.181,6.53,1.404,11.287-.067,17.064-.394,23.585c-.381,6.72-.381,26.864,0,33.583,.309,6.521,1.8,12.3,6.575,17.055,4.775,4.755,10.534,6.248,17.055,6.575,6.72,.381,26.863,.381,33.583,0,6.521-.309,12.3-1.8,17.055-6.575,4.759-4.759,6.248-10.535,6.575-17.055,.381-6.72,.381-26.845,0-33.565h-.002Zm-8.68,40.776c-1.397,3.54-4.201,6.342-7.742,7.737-5.353,2.125-18.067,1.633-23.989,1.633s-18.653,.472-23.993-1.635c-3.539-1.396-6.34-4.197-7.737-7.735-2.125-5.358-1.635-18.073-1.635-23.994s-.472-18.653,1.635-23.993c1.396-3.539,4.198-6.341,7.737-7.737,5.358-2.125,18.072-1.635,23.993-1.635s18.654-.471,23.989,1.635c3.539,1.396,6.341,4.198,7.737,7.737,2.125,5.358,1.635,18.072,1.635,23.993s.495,18.654-1.63,23.994Z" style="fill:#512583;"/></svg>