<?xml version="1.0" encoding="UTF-8"?><svg id="Capa_1" xmlns="http://www.w3.org/2000/svg" viewBox="0 0 78 77"><path id="Icon_awesome-facebook-messenger" d="M38.825-.313C16.872-.313-.14,15.73-.14,37.401c-.134,10.628,4.327,20.796,12.237,27.895,1.309,1.177,1.039,1.859,1.262,9.129,.06,1.724,1.505,3.073,3.229,3.013,.394-.014,.781-.102,1.142-.259,8.295-3.653,8.4-3.941,9.807-3.559,24.031,6.614,50.078-8.765,50.078-36.22,.002-21.67-16.837-37.713-38.79-37.713Zm23.4,29.023l-11.448,18.114c-1.733,2.732-5.352,3.542-8.084,1.81-.125-.079-.248-.164-.367-.253l-9.105-6.815c-.836-.627-1.986-.627-2.822,0l-12.287,9.321c-.812,.618-1.972,.461-2.59-.351-.467-.614-.504-1.454-.092-2.106l11.444-18.117c1.732-2.732,5.351-3.543,8.083-1.811,.126,.08,.249,.164,.368,.254l9.1,6.813c.836,.627,1.986,.627,2.822,0l12.292-9.309c.807-.62,1.964-.469,2.584,.338,.472,.614,.51,1.457,.095,2.111h.007Z" style="fill:#512583;"/></svg>