<?xml version="1.0" encoding="utf-8"?>
<!-- Generator: Adobe Illustrator 26.4.1, SVG Export Plug-In . SVG Version: 6.00 Build 0)  -->
<svg version="1.1" id="Capa_1" xmlns="http://www.w3.org/2000/svg" xmlns:xlink="http://www.w3.org/1999/xlink" x="0px" y="0px"
	 viewBox="0 0 242 97.5" style="enable-background:new 0 0 242 97.5;" xml:space="preserve">
<style type="text/css">
	.st0{enable-background:new    ;}
	.st1{fill:#512583;}
	.st2{fill:#F9C640;}
</style>
<g class="st0">
	<path class="st1" d="M5.6,85.6c-2.3-0.8-3.9-2.1-4.6-3.7c-0.6-1.4-0.6-2.9,0.1-4.6C1.8,75.7,3,74,4.7,72.2
		C7.6,69.3,12.4,65.6,19,61c-4-1.3-8.1-2.7-11.5-4.9c-4.3-2.7-6.7-6.2-7.2-10.7c-0.5-4.3,0.1-8.9,1.7-13.7c1.4-4.2,3.6-8.5,6.5-12.6
		c5.2-7.5,12.4-13.9,18.7-16.6c4.9-2.1,8.9-1.9,11.2,0.8c2.6,3,3.1,8.4,1.7,16.7c-0.7,3.9-2.1,10.5-5.4,20c-0.3,0.8-1.1,1.2-1.9,0.9
		c-0.8-0.3-1.2-1.1-1-1.9c1.8-5.2,4.1-12.7,5.3-19.5c1.5-9,0.3-12.8-1-14.4c-1.9-2.1-5.7-0.9-7.8,0c-2.8,1.2-5.9,3.2-8.9,5.9
		c-3.1,2.8-6.1,6.1-8.6,9.6C5.1,29,2.4,37.7,3.3,45c0.4,3.6,2.2,6.3,5.8,8.6c3.2,2.1,7.5,3.5,11.5,4.8c0.5,0.2,1,0.3,1.4,0.5
		c2.9-2,6.1-4.1,9.6-6.3c9.9-6.4,18.7-11.6,18.8-11.7c0.7-0.4,1.6-0.1,2,0.6c0.4,0.7,0.2,1.6-0.6,2c-0.2,0.1-13.7,8.1-26.4,16.7
		c3.9,1.4,7.2,3.2,8.6,6c1,1.9,1,4.1,0.1,6.7c-1.4,4.1-4.6,7.7-9,10.1c-3.7,2.1-8.2,3.4-12.6,3.5c-0.3,0.1-0.7,0.1-1,0.1
		C9.3,86.5,7.3,86.2,5.6,85.6z M31.4,71.8c0.6-1.8,0.6-3.2,0.1-4.3c-1.2-2.4-4.8-3.9-9-5.4c-6.4,4.5-12.3,8.8-15.6,12.1
		c-2.7,2.7-3.7,5-3.1,6.5c0.8,1.9,4.3,3,8.7,2.8C19.8,83.2,28.8,79.4,31.4,71.8z"/>
	<path class="st1" d="M58.1,55.3c-0.7-1-0.9-2.4-0.6-4.9c0-0.6,0.1-1.3,0.2-2.1c-2.4,3.1-5.1,4.8-7.5,5c-1.9,0.1-3.3-1-3.7-2.8
		c-0.3-2,0.6-5,2.6-7.6c1.2-1.7,3.9-4.8,7.8-5.9c0.8-0.2,1.7,0.2,1.9,1c0.2,0.8-0.2,1.6-1,1.9c-2.2,0.6-4.5,2.3-6.2,4.8
		c-1.6,2.3-2.1,4.3-2,5.3c0.1,0.3,0.1,0.4,0.5,0.4c1.6-0.1,3.6-1.6,5.5-3.9c2.1-2.7,3.9-6.3,5.1-10.1c0.3-0.8,1.1-1.2,1.9-1
		c0.8,0.3,1.2,1.1,1,1.9c0,0.1-1.1,3.7-2,7.7c-1.3,5.7-1.2,7.8-1,8.5c1.5-0.3,3.9-1.9,6.7-4.7c3-3,5.7-6.3,6.4-7.3
		c0.5-0.7,1.4-0.8,2.1-0.3c0.6,0.5,0.8,1.4,0.3,2.1c-0.8,1-3.5,4.6-6.7,7.7c-3.8,3.8-6.8,5.6-9.2,5.6C59.3,56.3,58.6,55.9,58.1,55.3
		z"/>
	<path class="st1" d="M73.3,94.9c-0.7-1.8-0.4-4.6,0.8-8.6c1.2-3.5,3.1-7.9,5.7-12.6c2.2-4.1,4.8-8.3,7.6-12.6
		c0.8-5.8,1.2-11.6,1.3-17c-1.2,2.1-2.6,3.9-3.8,5.3c-2.5,2.9-4.8,4.3-7,4.3c-1.6,0-2.5-0.8-3-1.4c-1-1.2-1.3-3.2-1-6.1
		c0.1-0.8,0.2-1.5,0.3-2.3c-0.3,0-0.5-0.1-0.7-0.3c-0.6-0.5-0.8-1.4-0.3-2.1l2.2-2.8c0.5-0.6,1.2-0.8,1.9-0.5c0.6,0.3,1,1,0.8,1.7
		c-0.6,2.3-1.1,4.7-1.3,6.7c-0.3,2.7,0.1,3.6,0.3,3.9c0.1,0.1,0.2,0.2,0.6,0.2c0.7,0,2.3-0.4,4.7-3.2c2-2.3,4.1-5.7,6.3-9.9
		c0.3-0.6,1-1,1.7-0.8c0.7,0.1,1.2,0.7,1.2,1.4c0.1,5.6-0.1,11.6-0.8,17.7c3.5-4.8,7.5-10.1,11.3-14.5c0.6-0.6,1.5-0.7,2.1-0.1
		c0.6,0.5,0.7,1.4,0.1,2.1c-4.3,5-8.9,11-12.8,16.6c-0.6,0.8-1,1.5-1.5,2.3c-0.6,3.7-1.2,7.4-1.9,11c-1.1,5.4-2.4,10.3-3.9,14.1
		c-1.5,4.1-3.2,7-4.8,8.6c-1,0.9-2,1.3-3.1,1.3h-0.4C74.8,97,73.7,96.2,73.3,94.9z M77.7,93.6c0.9-0.8,2.3-2.8,4.1-7.4
		c1.3-3.7,2.6-8.3,3.7-13.7l0.8-4.1c-1.4,2.3-2.7,4.5-3.9,6.6c-2.4,4.6-4.3,8.8-5.5,12.1c-1.4,4.4-1.1,6.1-0.9,6.6
		c0.1,0.3,0.3,0.4,0.5,0.4C76.9,94.2,77.3,93.9,77.7,93.6z"/>
	<path class="st1" d="M161.2,41.5c-3.5,1.5-6.9,2.9-10.1,4.1c-2.1,11.9-4.8,25.9-8.1,40.9c-0.1,0.7-0.8,1.2-1.4,1.2h-0.3
		c-0.8-0.2-1.3-1-1.2-1.8c2.1-9.5,4.9-23,7.7-39.1c-8.8,3.4-16.6,5.9-23.1,7.6l-1.7,0.4c-2,10.1-3.5,20.1-3.5,26.7
		c0,0.8-0.7,1.5-1.5,1.5s-1.5-0.7-1.5-1.5c0-5.8,1.1-14.6,3.3-26c-4.9,1-7.7,1.1-9.5,1.2h-0.1h-0.3c-1.1,0-1.9-0.2-2.6-0.8
		c-0.7-0.6-0.8-1.2-0.8-1.4c-0.1-0.8,0.5-1.6,1.3-1.7c0.7-0.1,1.2,0.3,1.5,0.8c0.1,0.1,0.3,0.1,0.7,0.1h0.1
		c1.8-0.1,4.8-0.2,10.2-1.4c1-4.8,2.1-10,3.5-15.7c3.7-15.7,7.3-28.9,7.4-29c0.2-0.8,1-1.2,1.8-1c0.8,0.2,1.3,1,1.1,1.9
		c-0.1,0.1-3.7,13.3-7.4,28.9c-1,4.4-2.1,9.2-3.1,14.2c0.1,0,0.2-0.1,0.3-0.1c6.9-1.7,15.1-4.5,24.5-8.1c1-6.2,2.1-12.7,3.2-19.5
		c1.6-10.5,2.6-18.4,3.2-22.5c-0.5-0.4-0.6-1-0.3-1.7l0.8-1.9c0.3-0.7,1-1,1.7-0.9c0.8,0.2,1.2,0.9,1.1,1.7c0,0.1-1.1,10-3.5,25.7
		c-0.8,5-1.7,11-2.9,17.7c2.8-1.1,5.5-2.2,8.4-3.4c0.8-0.3,1.7,0,2,0.8C162.4,40.3,162,41.1,161.2,41.5z"/>
	<path class="st1" d="M162.6,52.4c-0.8-1.8-0.8-4.3-0.1-6.7c0.7-2.6,2.1-4.8,3.8-6.4c0.6-0.6,1.6-0.5,2.1,0.1s0.5,1.5-0.1,2.1
		c-2.3,2.2-4.1,6.9-3,9.7c0.4,1,1.1,1.4,2.2,1.3c1.1,0,2.2-1,3.2-2.8s1.5-4.1,1.4-6.1c0-1.1-0.2-2-0.6-2.6c-0.3-0.3-0.6-0.6-1-0.6
		h-0.1c-0.8,0-1.4-0.6-1.4-1.4s0.6-1.5,1.4-1.5h0.4c1.9,0.1,3.5,1.4,5,2.6c2.8,2.1,5.2,4,9.7,1c0.7-0.5,1.7-0.3,2.1,0.3
		c0.4,0.7,0.3,1.7-0.4,2.1c-2.8,1.9-5.3,2.6-7.9,2c-1.7-0.4-3-1.3-4.3-2.2v0.3c0.1,4.8-2.7,11.8-7.5,12h-0.3
		C165.2,55.5,163.4,54.4,162.6,52.4z"/>
	<path class="st1" d="M188.5,67.1c-2.1-7.8-2.3-15.7-2.2-22.6c-0.3,0-0.6-0.1-0.8-0.3c-0.7-0.5-0.8-1.4-0.3-2.1
		c0.4-0.6,0.8-1.2,1.2-1.7v-0.1c0.4-8.7,1.9-17.8,4.2-24.8c1.1-3.5,2.3-6.3,3.6-8.3c1.5-2.4,3.1-3.7,4.8-3.8
		c1.6-0.1,2.9,0.6,3.7,1.9c0.8,1.4,1,3.6,0.5,6.4c-0.4,2.6-1.3,5.7-2.6,9.1c-2.6,6.6-6.5,13.9-11.1,20.6c-0.3,7.5-0.3,16.3,2,25v0.1
		c0.7,0.1,1.2,0.6,1.3,1.3c0.1,0.8-0.5,1.5-1.3,1.7h-0.2C190.3,69.3,189,68.8,188.5,67.1z M197.7,19.7c2.9-7.5,3.1-11.7,2.3-13
		c-0.1-0.2-0.3-0.3-0.6-0.3h-0.1c-0.9,0.1-3.2,2.3-5.7,10.1c-1.8,5.5-3,12.1-3.7,18.8C193,29.9,195.8,24.6,197.7,19.7z"/>
	<path class="st1" d="M207.2,55.3c-0.7-1-0.9-2.4-0.6-4.9c0-0.6,0.1-1.3,0.2-2.1c-2.4,3.1-5.1,4.8-7.5,5c-1.9,0.1-3.3-1-3.7-2.8
		c-0.3-2,0.6-5,2.6-7.6c1.2-1.7,3.9-4.8,7.8-5.9c0.8-0.2,1.7,0.2,1.9,1c0.2,0.8-0.2,1.6-1,1.9c-2.2,0.6-4.5,2.3-6.2,4.8
		c-1.6,2.3-2.1,4.3-2,5.3c0.1,0.3,0.1,0.4,0.5,0.4c1.6-0.1,3.6-1.6,5.5-3.9c2.1-2.7,3.9-6.3,5.1-10.1c0.3-0.8,1.1-1.2,1.9-1
		c0.8,0.3,1.2,1.1,1,1.9c0,0.1-1.1,3.7-2,7.7c-1.3,5.7-1.2,7.8-1,8.5c1.5-0.3,3.9-1.9,6.7-4.7c3-3,5.7-6.3,6.4-7.3
		c0.5-0.7,1.4-0.8,2.1-0.3c0.6,0.5,0.8,1.4,0.3,2.1c-0.8,1-3.5,4.6-6.7,7.7c-3.8,3.8-6.8,5.6-9.2,5.6
		C208.4,56.3,207.7,55.9,207.2,55.3z"/>
	<path class="st1" d="M228.6,55.4c-0.8-0.1-1.3-1-1.1-1.8c0.2-0.7,0.4-1.2,0.8-1.4c0.6-0.6,1.5-0.6,2.1,0.1c0.5,0.6,0.5,1.3,0.1,1.9
		c0,0.1,0,0.1-0.1,0.3c-0.1,0.7-0.8,1.1-1.4,1.1C228.8,55.5,228.7,55.5,228.6,55.4z M229.7,46.1c-0.8-0.3-1-1.2-0.7-2
		c0.1-0.2,0.2-0.4,0.3-0.6c0.7-10.5,2.1-20.7,4-28.8c0.8-3.6,1.7-6.6,2.6-8.6c0.5-1.1,0.9-1.9,1.4-2.6c0.7-1,1.4-1.4,2.3-1.4
		c0.6,0,1.1,0.3,1.4,0.8s0.5,1.3,0.5,2.6c0,1-0.1,2.3-0.3,3.9c-0.3,3.1-1,7-1.8,11.1c-0.9,4.6-3.5,15.7-7.2,23.7
		c-0.1,0.5-0.2,0.8-0.4,1c-0.1,0.1-0.1,0.2-0.1,0.3c-0.3,0.5-0.8,0.8-1.4,0.8C230.2,46.4,230,46.3,229.7,46.1z M236.4,20.6
		c1.2-5.6,1.7-9.9,2-12.6c-0.7,1.8-1.6,4.6-2.5,8.8c-1.1,4.8-2,10.4-2.7,16.3C234.4,29.2,235.5,25,236.4,20.6z"/>
</g>
</svg>
