<?xml version="1.0" encoding="UTF-8"?><svg id="Capa_1" xmlns="http://www.w3.org/2000/svg" viewBox="0 0 104 76"><g id="Grupo_155"><g id="Grupo_149"><path id="Trazado_225" d="M33.156,65.256c-.552,0-1-.448-1-1v-4.752c-4.789-.735-8.341-4.831-8.39-9.676v-10.02c.041-5.019,4.143-9.055,9.162-9.014,.064,0,.128,.002,.191,.004h16.173c4.82-.061,8.778,3.797,8.839,8.618,.002,.131,0,.262-.004,.393v10.02c0,5.368-3.963,9.736-8.835,9.736h-5.5l-10.154,5.568c-.148,.081-.314,.123-.482,.123Zm-.037-32.458c-3.926-.132-7.216,2.943-7.349,6.869-.002,.047-.003,.094-.003,.142v10.02c0,4.122,3.437,7.738,7.354,7.738,.559-.003,1.019,.441,1.036,1v4l8.9-4.88c.147-.081,.313-.123,.481-.123h5.757c3.77,0,6.837-3.471,6.837-7.738v-10.02c.171-3.696-2.687-6.831-6.383-7.002-.152-.007-.305-.009-.457-.006h-16.173Z" style="fill:#2f6fb6;"/></g><g id="Grupo_150"><path id="Trazado_226" d="M71.512,49.275c-.183,0-.362-.05-.518-.145l-9.151-5.546h-1.718c-.552,0-1-.448-1-1s.448-1,1-1h2c.183,0,.362,.05,.518,.145l7.874,4.772v-3.917c0-.552,.448-1,1-1h1.024c4.135,0,6.366-3.987,6.366-7.738v-10.02c0-4.195-2.558-7.013-6.366-7.013h-16.177c-4.242,0-7.826,3.212-7.826,7.013v4.973c0,.552-.448,1-1,1s-1-.448-1-1v-4.973c0-4.884,4.5-9.011,9.823-9.011h16.18c4.925,0,8.364,3.705,8.364,9.011v10.02c0,5.55-3.6,9.736-8.364,9.736h-.026v4.692c0,.552-.448,1-1,1h-.003Z" style="fill:#2f6fb6;"/></g><g id="Grupo_151"><path id="Trazado_227" d="M41.147,50.176c-.552,0-1-.448-1-1v-1.815c0-.868,.717-1.442,1.547-2.108,1.393-1.116,2.267-1.944,1.752-3.218-.402-.887-1.334-1.409-2.3-1.288-1.234,.02-2.333,.785-2.78,1.936-.123,.538-.66,.875-1.198,.751-.538-.123-.875-.66-.751-1.198,.007-.032,.016-.063,.026-.094,.669-1.981,2.503-3.334,4.593-3.389,1.822-.184,3.551,.844,4.26,2.533,1.112,2.748-1.058,4.487-2.354,5.526-.282,.213-.55,.444-.8,.694v1.67c0,.55-.445,.997-.995,1Z" style="fill:#2f6fb6;"/></g><g id="Grupo_152"><path id="Trazado_228" d="M39.876,52.254c0-.699,.567-1.266,1.266-1.266,.699,0,1.266,.567,1.266,1.266s-.567,1.266-1.266,1.266h0c-.699,0-1.266-.567-1.266-1.266Z" style="fill:#2f6fb6;"/></g><g id="Grupo_153"><path id="Trazado_229" d="M62.649,35.474c0-.699,.567-1.266,1.266-1.266,.699,0,1.266,.567,1.266,1.266s-.567,1.266-1.266,1.266h0c-.699,0-1.266-.567-1.266-1.266Z" style="fill:#2f6fb6;"/></g><g id="Grupo_154"><path id="Trazado_230" d="M63.922,33.395c-.552,0-1-.448-1-1v-9.187c0-.552,.448-1,1-1s1,.448,1,1v9.189c-.001,.552-.448,.998-1,.998Z" style="fill:#2f6fb6;"/></g></g></svg>