<?xml version="1.0" encoding="UTF-8"?><svg id="Capa_1" xmlns="http://www.w3.org/2000/svg" viewBox="0 0 41 40"><path id="Icon_awesome-linkedin-in" d="M13.569,35.558H7.354V15.529h6.22l-.005,20.029Zm-3.115-22.761c-1.999,.01-3.627-1.601-3.638-3.6-.01-1.999,1.601-3.627,3.6-3.638,1.998-.01,3.627,1.601,3.638,3.599,.004,1.996-1.604,3.621-3.6,3.639Zm26.394,22.761h-6.206v-9.75c0-2.324-.047-5.3-3.234-5.3-3.234,0-3.729,2.525-3.729,5.136v9.914h-6.214V15.529h5.965v2.729h.087c1.216-2.08,3.477-3.323,5.885-3.234,6.296,.003,7.452,4.148,7.452,9.534v11h-.006Z" style="fill:#512583;"/></svg>