<?xml version="1.0" encoding="UTF-8"?><svg id="Capa_1" xmlns="http://www.w3.org/2000/svg" viewBox="0 0 104 76"><g id="Grupo_48"><path id="Trazado_22" d="M80.899,44.751l-11.956-4.308c-2.729-.843-5.65-.843-8.379,0l-11.956,4.308c-1.87,.674-2.26,1.645-2.258,2.342s.4,1.664,2.274,2.324l3.834,1.351v9.586c0,.377,.21,.723,.543,.9,7.452,3.963,16.385,3.963,23.837,0,.334-.176,.542-.523,.543-.9v-9.7l3.506-1.235c1.875-.661,2.272-1.628,2.274-2.325s-.392-1.669-2.262-2.343Zm-5.565,14.966c-6.555,3.291-14.279,3.291-20.834,0v-8.229l6.061,2.135c2.734,.825,5.651,.825,8.385,0l6.389-2.252v8.346Zm4.868-12.226l-11.936,4.206c-2.295,.669-4.732,.669-7.027,0l-11.936-4.206c-.292-.093-.568-.23-.818-.407,.249-.178,.523-.317,.814-.412l11.959-4.309c2.282-.68,4.712-.68,6.994,0l11.956,4.308c.291,.094,.566,.233,.814,.412-.25,.178-.526,.315-.818,.407h-.002Z" style="fill:#2f6fb6;"/><path id="Trazado_23" d="M51.06,51.871c-.457-.329-1.095-.225-1.424,.232,0,0,0,0,0,0h0c-1.151,1.6-2.972,3.48-5.35,3.869v-10.409c.307,.007,.613,.012,.922,.024,.564,.012,1.032-.435,1.044-1,.012-.55-.413-1.01-.962-1.042-.335-.014-.669-.02-1-.027v-7.174h9.856c-.034,1.194-.136,2.567-.277,3.726-.048,.562,.369,1.057,.931,1.105,.535,.046,1.014-.33,1.097-.86,.15-1.239,.256-2.694,.291-3.97h7.86c-.024,.434-.059,.868-.109,1.294-.065,.56,.336,1.067,.896,1.133,.56,.065,1.067-.336,1.133-.897h0c.103-.889,.155-1.783,.155-2.678-.013-12.632-10.264-22.863-22.896-22.85s-22.863,10.264-22.85,22.896c.013,12.632,10.264,22.863,22.896,22.85,2.449-.002,4.882-.398,7.205-1.172,.536-.171,.831-.744,.66-1.279-.164-.512-.697-.809-1.218-.678,.497-.524,.958-1.081,1.378-1.668,.328-.459,.223-1.096-.236-1.425h-.002Zm-16.69-5.492c2.596-.501,5.23-.775,7.873-.821v10.363c-3.263-.706-6.138-4.376-7.874-9.542h0Zm7.873-2.864c-2.841,.048-5.672,.349-8.459,.9-.68-2.639-1.061-5.346-1.134-8.07h9.593v7.17Zm-19.84-7.17h8.2c.063,2.877,.445,5.738,1.139,8.53-1.984,.494-3.918,1.17-5.779,2.017-2.128-3.125-3.36-6.773-3.564-10.548h.004Zm3.735-13.081c1.835,.82,3.74,1.474,5.691,1.956-.767,2.968-1.179,6.016-1.228,9.081h-8.208c.166-3.961,1.465-7.792,3.743-11.037h.002Zm18.15-8.844c3.293,.552,6.219,4.119,8.015,9.234-2.641,.523-5.323,.812-8.015,.863V14.42Zm-2.043,.047v10.05c-2.609-.045-5.21-.313-7.774-.8,1.745-5.009,4.574-8.551,7.773-9.246v-.004Zm0,12.092v7.739h-9.6c.058-2.913,.467-5.808,1.219-8.622,2.762,.54,5.567,.837,8.381,.885v-.002Zm2.043,0c2.897-.053,5.783-.369,8.623-.945,.765,2.834,1.18,5.75,1.238,8.685h-9.862v-7.74Zm19.77,7.74h-7.865c-.048-3.093-.467-6.169-1.248-9.162,1.839-.472,3.634-1.099,5.367-1.875,2.279,3.245,3.578,7.076,3.744,11.038h.002Zm-5.037-12.701c-1.512,.647-3.072,1.176-4.666,1.583-.889-2.85-2.376-5.477-4.363-7.706,3.498,1.206,6.613,3.32,9.027,6.124h.002Zm-22.051-6.301c-2.094,2.282-3.651,5.003-4.558,7.965-1.702-.418-3.367-.973-4.979-1.661,2.531-2.945,5.833-5.127,9.535-6.3l.002-.004Zm-9.736,33.265c1.643-.717,3.344-1.294,5.084-1.726,.9,3.069,2.49,5.892,4.647,8.253-3.8-1.204-7.177-3.468-9.733-6.527h.002Z" style="fill:#2f6fb6;"/></g></svg>