<?xml version="1.0" encoding="UTF-8"?><svg id="Capa_1" xmlns="http://www.w3.org/2000/svg" viewBox="0 0 104 76"><g id="Grupo_148"><path id="Trazado_219" d="M81.321,51.679c-.193-.281-.511-.449-.852-.449h-20.35c-.388,0-.743,.217-.919,.563-.049,.1-.117,.189-.2,.263h-.5c-.57,.001-1.031,.464-1.03,1.034,.001,.568,.462,1.029,1.03,1.03h.568c.631-.019,1.219-.323,1.6-.826h18.1c-.444,.68-.969,1.238-1.39,1.238h-18.88c-.57,.001-1.031,.464-1.03,1.034,.001,.568,.462,1.029,1.03,1.03h18.88c2.385,0,3.788-3.3,4.045-3.961,.125-.316,.087-.674-.102-.956Z" style="fill:#2f6fb6;"/><path id="Trazado_220" d="M71.492,50.405c2.418-.013,4.367-1.984,4.354-4.402,0-.033,0-.065-.002-.098V25.596c.065-2.42-1.845-4.434-4.264-4.499-.029,0-.058-.001-.088-.001h-20c-.57,0-1.032,.462-1.032,1.032s.462,1.032,1.032,1.032h20c1.279,.014,2.305,1.061,2.291,2.341,0,.033-.001,.066-.003,.099v20.309c.066,1.275-.913,2.362-2.188,2.428-.033,.002-.067,.003-.1,.003h-13.4c-.57-.001-1.033,.46-1.034,1.03-.001,.57,.46,1.033,1.03,1.034h13.404Z" style="fill:#2f6fb6;"/><path id="Trazado_221" d="M72.129,45.657V25.843c0-.57-.462-1.032-1.032-1.032h-17.957c-.57,0-1.032,.462-1.032,1.032s.462,1.032,1.032,1.032h16.925v17.75h-1.238v-.206c0-1.712-1.388-3.1-3.1-3.1h-5.779c-1.712,0-3.1,1.388-3.1,3.1v.206h-.413c-.57,.001-1.031,.464-1.03,1.034,.001,.568,.462,1.029,1.03,1.03h14.654c.57,.004,1.036-.454,1.04-1.024,0-.003,0-.005,0-.008Zm-13.209-1.238c0-.57,.462-1.031,1.032-1.032h5.779c.57,0,1.031,.462,1.032,1.032v.206h-7.843v-.206Z" style="fill:#2f6fb6;"/><path id="Trazado_222" d="M62.603,40.478c2.11,0,3.82-1.71,3.82-3.82s-1.71-3.82-3.82-3.82-3.82,1.71-3.82,3.82c.002,2.109,1.711,3.818,3.82,3.82Zm0-5.576c.97,0,1.756,.786,1.756,1.756,0,.97-.786,1.756-1.756,1.756-.97,0-1.756-.786-1.756-1.756h0c.001-.969,.787-1.755,1.756-1.756Z" style="fill:#2f6fb6;"/><path id="Trazado_223" d="M39.279,41.279c6.577,0,11.908-5.331,11.908-11.908,0-6.577-5.331-11.908-11.908-11.908-6.577,0-11.908,5.331-11.908,11.908,.007,6.574,5.334,11.901,11.908,11.908Zm0-21.751c5.437,0,9.844,4.407,9.844,9.844s-4.407,9.844-9.844,9.844c-5.437,0-9.844-4.407-9.844-9.844h0c.006-5.434,4.41-9.838,9.844-9.844Z" style="fill:#2f6fb6;"/><path id="Trazado_224" d="M46.741,42.561h-15.686c-5.127,.007-9.281,4.161-9.288,9.288v8.875c0,.57,.462,1.032,1.032,1.032s1.032-.462,1.032-1.032v-8.875c.004-3.988,3.236-7.22,7.224-7.224h15.686c3.988,.004,7.22,3.236,7.224,7.224v8.875c0,.57,.462,1.032,1.032,1.032s1.032-.462,1.032-1.032v-8.875c-.007-5.127-4.161-9.281-9.288-9.288Z" style="fill:#2f6fb6;"/></g></svg>