<?xml version="1.0" encoding="utf-8"?>
<!-- Generator: Adobe Illustrator 26.4.1, SVG Export Plug-In . SVG Version: 6.00 Build 0)  -->
<svg version="1.1" id="Capa_1" xmlns="http://www.w3.org/2000/svg" xmlns:xlink="http://www.w3.org/1999/xlink" x="0px" y="0px"
	 viewBox="0 0 931 168" style="enable-background:new 0 0 931 168;" xml:space="preserve">
<style type="text/css">
	.st0{fill:#F9C640;}
	.st1{fill:url(#Trazado_402_00000125594550633122867600000012455873747091772842_);}
	.st2{fill:#EB585A;}
	.st3{fill:url(#Trazado_404_00000033361853858389304940000013202506750857512375_);}
	.st4{fill:url(#Trazado_405_00000150100019942299469790000011584461039897758131_);}
	.st5{fill:url(#Trazado_406_00000030463343431350882830000011541409501673589407_);}
	.st6{fill:url(#Trazado_407_00000019658424389341704580000015360658889239293857_);}
	.st7{fill:url(#Trazado_409_00000120551915577447911090000004617281830687754645_);}
	.st8{fill:url(#Trazado_410_00000082341857722984920820000003378013822408034688_);}
	.st9{fill:url(#Trazado_411_00000008858346018345591920000014077254237122753166_);}
	.st10{fill:url(#Trazado_412_00000012456651378913400530000005523289993114063495_);}
	.st11{fill:url(#Trazado_413_00000170989151661591864410000000339718208656786604_);}
	.st12{fill:url(#Trazado_414_00000098209590988897765830000017325145388513954207_);}
	.st13{fill:url(#Trazado_415_00000035515675664764186250000010176176942274072253_);}
	.st14{fill:#31843D;}
	.st15{opacity:0.53;fill:#FFFFFF;enable-background:new    ;}
	.st16{fill:#3DAD52;}
	.st17{clip-path:url(#SVGID_00000158009653253469285690000008857594883386467498_);}
	.st18{fill:url(#Trazado_420_00000102531519024405787290000018246497676382067377_);}
	.st19{fill:url(#Trazado_421_00000083049746734284208240000007341632329228945555_);}
	.st20{fill:#2F6FB6;}
	.st21{fill:url(#Trazado_423_00000109741956042415037060000001156863564415155901_);}
	.st22{fill:url(#Trazado_424_00000173134597348686987140000007023296959362637974_);}
	.st23{fill:url(#Trazado_425_00000078011306173611616970000001594266845117924483_);}
	.st24{fill:url(#Trazado_426_00000142137041087909470420000006531384585714921663_);}
	.st25{fill:url(#Trazado_427_00000181084551790252302020000011084145983508390532_);}
	.st26{fill:url(#Trazado_428_00000049223808340920955300000006550069648145334964_);}
	.st27{fill:url(#Trazado_430_00000028289421625222204760000009866806324115154877_);}
	.st28{fill:url(#Trazado_431_00000046299154707852407790000000137873217711109047_);}
	.st29{fill:url(#Trazado_435_00000181056485955827195700000001852666361050735501_);}
	.st30{fill:url(#Trazado_436_00000090277463753995802470000015709484587467359907_);}
	.st31{fill:url(#Trazado_437_00000098920434500128020070000008931215528726708402_);}
	.st32{fill:url(#Trazado_438_00000029007731428153454200000011622864045561879971_);}
	.st33{fill:url(#Trazado_439_00000116945937987083493860000008510503513688751803_);}
	.st34{fill:#7D97F4;}
	.st35{fill:url(#Trazado_440_00000060004434990525750810000017748726529155161733_);}
	.st36{fill:url(#Trazado_441_00000047743052759173272380000010082142748256488622_);}
	.st37{fill:url(#Trazado_442_00000180342390391195748810000009045486674645963438_);}
	.st38{fill:url(#Trazado_443_00000131345898986981890200000007511008450385722032_);}
	.st39{fill:url(#Trazado_444_00000115509320450042055200000001384788840186699681_);}
	.st40{fill:#7A4710;}
	.st41{fill:url(#Trazado_447_00000057831047893935095130000010961231806813207487_);}
	.st42{fill:url(#Trazado_448_00000165229737527558727500000005860666361693499064_);}
	.st43{fill:url(#Trazado_449_00000083087796933047366620000002950142529315711931_);}
	.st44{fill:url(#Trazado_451_00000124131838416071436020000001214634349613295531_);}
	.st45{fill:url(#Trazado_452_00000073719161240687417680000011371847556132590250_);}
	.st46{fill:url(#Trazado_453_00000091700206356607975880000015309868920095939980_);}
	.st47{fill:none;stroke:#EB585A;stroke-dasharray:5;}
</style>
<g id="Icon_ionic-ios-rocket" transform="translate(1016.877 649.246) rotate(-7)">
	<path id="Trazado_455" class="st0" d="M-9.5-654.1c-0.1-0.5-0.4-0.8-0.9-0.9c-14.9-3.6-49.2,9.3-67.8,27.9c-3.3,3.3-6.3,6.9-9,10.7
		c-5.7-0.5-11.5-0.1-16.4,2c-13.8,6.1-17.8,21.9-18.9,28.7c-0.2,1.3,0.7,2.6,2,2.8c0.2,0,0.4,0,0.7,0l22.1-2.4c0,1.7,0.1,3.3,0.3,5
		c0.1,1.1,0.6,2.2,1.4,3l8.6,8.6c0.8,0.8,1.9,1.3,3,1.4c1.6,0.2,3.3,0.3,5,0.3l-2.4,22.1c-0.1,1.3,0.8,2.5,2.2,2.7
		c0.2,0,0.5,0,0.7,0c6.8-1.1,22.7-5.1,28.7-18.9c2.1-4.9,2.6-10.6,2.1-16.3c3.8-2.7,7.4-5.7,10.7-9C-18.8-605-6-638.5-9.5-654.1z
		 M-54.1-610.4c-4.6-4.6-4.6-11.9,0-16.5c4.6-4.6,11.9-4.6,16.5,0c4.6,4.6,4.6,11.9,0,16.5C-42.2-605.9-49.5-605.9-54.1-610.4
		C-54.1-610.4-54.1-610.4-54.1-610.4z"/>
	<path id="Trazado_456" class="st2" d="M-88-564.9L-88-564.9c-1.1,1.1-3.2,1.8-5.4,2.2c-4,0.7-7.8-2-8.5-6c-0.1-0.8-0.1-1.6,0-2.4
		c0.4-2.2,1-4.3,2.2-5.4l0,0c0.4-0.4,0.4-0.9,0-1.3c-0.2-0.2-0.5-0.3-0.8-0.3c-2.8,0.3-5.4,1.6-7.3,3.6c-4.9,4.9-5.4,23.1-5.4,23.1
		s18.3-0.5,23.2-5.4c2-2,3.2-4.6,3.6-7.3c0.1-0.5-0.3-1-0.8-1C-87.5-565.2-87.8-565.1-88-564.9z"/>
</g>
<path id="Trazado_457" class="st47" d="M841.9,107.4c0,0-61.4,60.7-149.4,36.7s-122.8-85.7-86-77.7s-93.3,125.9-280,58
	S1.3,168.1,1.3,168.1"/>
</svg>
