<?xml version="1.0" encoding="UTF-8"?><svg id="Capa_1" xmlns="http://www.w3.org/2000/svg" viewBox="0 0 88 78.75"><g id="Grupo_261"><path id="Trazado_28" d="M80.9,49.48h-3.153v-1.247c.002-.764-.595-1.395-1.358-1.435-.026,0-.648-.032-1.618-.032-2.406-.025-4.809,.199-7.169,.667-2.145,.479-4.224,1.218-6.19,2.2-1.966-.982-4.045-1.721-6.19-2.2-2.36-.468-4.763-.692-7.169-.667-.97,0-1.592,.031-1.618,.032-.762,.039-1.359,.668-1.359,1.431v1.247h-3.153c-.791,0-1.433,.641-1.434,1.432v24.079c0,.791,.642,1.433,1.433,1.433h38.978c.791,0,1.433-.642,1.433-1.433v-24.074c0-.791-.642-1.433-1.433-1.433Zm-12.68,.678c2.156-.439,4.35-.666,6.55-.678h.111v20.145c-.335-.01-.713-.017-1.127-.017-1.755-.011-3.509,.127-5.241,.412-2.023,.421-3.947,1.223-5.669,2.365v-20.263c1.706-.87,3.511-1.53,5.376-1.964Zm-20.279-.523c2.235-.027,4.467,.174,6.661,.6,1.859,.418,3.664,1.052,5.376,1.889v20.261c-1.722-1.142-3.646-1.944-5.669-2.365-1.732-.285-3.486-.423-5.241-.412-.414,0-.792,.007-1.127,.017v-19.99Zm-4.586,2.711h1.72v18.792c0,.791,.641,1.433,1.433,1.433,.044,0,.089-.002,.133-.006,.01,0,1-.091,2.427-.091,1.592-.009,3.182,.115,4.754,.371,.785,.147,1.55,.385,2.279,.71h-12.746v-21.209Zm36.112,21.208h-12.749c.73-.325,1.496-.563,2.282-.71,1.572-.256,3.162-.38,4.754-.371,1.43,0,2.417,.09,2.427,.091,.788,.073,1.486-.506,1.56-1.294,.004-.044,.006-.089,.006-.133v-18.791h1.72v21.208Z" style="fill:#2f6fb6;"/><path id="Trazado_29" d="M37.623,63.809H14.695v-28.373c0-.791-.642-1.433-1.433-1.433h-3.842L41.402,7.351l32.013,26.652h-5.126c-.791,0-1.433,.642-1.433,1.433v8.885c0,.791,.642,1.433,1.433,1.433s1.433-.642,1.433-1.433v-7.452h7.654c.791,0,1.433-.642,1.433-1.433,0-.425-.189-.829-.516-1.101L42.318,4.385c-.531-.442-1.303-.442-1.834,0L4.544,34.335c-.608,.507-.69,1.41-.184,2.018,.272,.327,.676,.516,1.102,.516h6.367v28.373c0,.791,.642,1.433,1.433,1.433h24.361c.791,0,1.433-.642,1.433-1.433s-.642-1.433-1.433-1.433h0Z" style="fill:#2f6fb6;"/></g></svg>